<svg xmlns="http://www.w3.org/2000/svg" viewBox="0 0 48 48">
  <view id="primary" viewBox="0 0 48 48"/>
  <polygon points="42.71 6.71 41.29 5.29 24 22.59 6.71 5.29 5.29 6.71 22.59 24 5.29 41.29 6.71 42.71 24 25.41 41.29 42.71 42.71 41.29 25.41 24 42.71 6.71" fill="#FFF"/>

  <view id="primary-hover" viewBox="0 48 48 48"/>
  <polygon points="42.71 6.71 41.29 5.29 24 22.59 6.71 5.29 5.29 6.71 22.59 24 5.29 41.29 6.71 42.71 24 25.41 41.29 42.71 42.71 41.29 25.41 24 42.71 6.71" transform="translate(0, 48)" fill="#000"/>

  <view id="secondary" viewBox="0 96 48 48"/>
  <polygon points="42.71 6.71 41.29 5.29 24 22.59 6.71 5.29 5.29 6.71 22.59 24 5.29 41.29 6.71 42.71 24 25.41 41.29 42.71 42.71 41.29 25.41 24 42.71 6.71" transform="translate(0, 96)" fill="#077CA6"/>

  <view id="secondary-hover" viewBox="0 144 48 48"/>
  <polygon points="42.71 6.71 41.29 5.29 24 22.59 6.71 5.29 5.29 6.71 22.59 24 5.29 41.29 6.71 42.71 24 25.41 41.29 42.71 42.71 41.29 25.41 24 42.71 6.71" transform="translate(0, 144)" fill="#5CBCE1"/>

  <view id="tertiary" viewBox="0 192 48 48"/>
  <polygon points="42.71 6.71 41.29 5.29 24 22.59 6.71 5.29 5.29 6.71 22.59 24 5.29 41.29 6.71 42.71 24 25.41 41.29 42.71 42.71 41.29 25.41 24 42.71 6.71" transform="translate(0, 192)" fill="#4A4A4A"/>

  <view id="tertiary-hover" viewBox="0 240 48 48"/>
  <polygon points="42.71 6.71 41.29 5.29 24 22.59 6.71 5.29 5.29 6.71 22.59 24 5.29 41.29 6.71 42.71 24 25.41 41.29 42.71 42.71 41.29 25.41 24 42.71 6.71" transform="translate(0, 240)" fill="#9A9A49"/>
</svg>