<svg xmlns="http://www.w3.org/2000/svg">
  <view id="default" viewBox="0 0 48 48"/>
  <path d="M42.3,26.4c0-.72.25-1.68.25-2.4a8,8,0,0,0-.25-2.4L47.48,18a1.1,1.1,0,0,0,.25-1.68l-4.94-8.4a1.11,1.11,0,0,0-1.48-.72L35.39,9.84a15.85,15.85,0,0,0-4.44-2.4L30.21,1.2A1.15,1.15,0,0,0,29,0H19.1a1.15,1.15,0,0,0-1.23,1.2l-.74,6a19.11,19.11,0,0,0-4.44,2.4L6.76,7.2a1.2,1.2,0,0,0-1.48.48L.34,16.08c-.49.72-.49,1.44.25,1.68L5.77,21.6c0,.72-.25,1.68-.25,2.4a8,8,0,0,0,.25,2.4L.59,30a1.1,1.1,0,0,0-.25,1.68l4.94,8.4a1.11,1.11,0,0,0,1.48.72l5.92-2.64a15.85,15.85,0,0,0,4.44,2.4l.74,6.24A1.15,1.15,0,0,0,19.1,48H29a1.15,1.15,0,0,0,1.23-1.2l.74-6.24a19.11,19.11,0,0,0,4.44-2.4l5.92,2.64a1.2,1.2,0,0,0,1.48-.48l4.94-8.4a1.45,1.45,0,0,0-.25-1.68ZM24,34A10,10,0,1,1,34,24,10,10,0,0,1,24,34Z" fill="#077CA6"/>

  <view id="hover" viewBox="0 48 48 48"/>
  <path d="M42.3,26.4c0-.72.25-1.68.25-2.4a8,8,0,0,0-.25-2.4L47.48,18a1.1,1.1,0,0,0,.25-1.68l-4.94-8.4a1.11,1.11,0,0,0-1.48-.72L35.39,9.84a15.85,15.85,0,0,0-4.44-2.4L30.21,1.2A1.15,1.15,0,0,0,29,0H19.1a1.15,1.15,0,0,0-1.23,1.2l-.74,6a19.11,19.11,0,0,0-4.44,2.4L6.76,7.2a1.2,1.2,0,0,0-1.48.48L.34,16.08c-.49.72-.49,1.44.25,1.68L5.77,21.6c0,.72-.25,1.68-.25,2.4a8,8,0,0,0,.25,2.4L.59,30a1.1,1.1,0,0,0-.25,1.68l4.94,8.4a1.11,1.11,0,0,0,1.48.72l5.92-2.64a15.85,15.85,0,0,0,4.44,2.4l.74,6.24A1.15,1.15,0,0,0,19.1,48H29a1.15,1.15,0,0,0,1.23-1.2l.74-6.24a19.11,19.11,0,0,0,4.44-2.4l5.92,2.64a1.2,1.2,0,0,0,1.48-.48l4.94-8.4a1.45,1.45,0,0,0-.25-1.68ZM24,34A10,10,0,1,1,34,24,10,10,0,0,1,24,34Z" transform="translate(0, 48)" fill="#5CBCE1"/>
</svg>