<svg xmlns="http://www.w3.org/2000/svg">
  <view id="default" viewBox="0 0 48 48"/>
  <rect x="22.96" y="16" width="2" height="22" fill="#077CA6"/>
  <rect x="29.96" y="16" width="2" height="22" fill="#077CA6"/>
  <rect x="15.96" y="16" width="2" height="22" fill="#077CA6"/>
  <path d="M44,7H33V5a5,5,0,0,0-5-5H20a5,5,0,0,0-5,5V7H4V9H6.68V39a9,9,0,0,0,9,9H32.23a9,9,0,0,0,9-9V9H44ZM17,5a3,3,0,0,1,3-3h8a3,3,0,0,1,3,3V7H17ZM39.23,39a7,7,0,0,1-7,7H15.68a7,7,0,0,1-7-7V9H39.23Z" fill="#077CA6"/>

  <view id="hover" viewBox="0 48 48 48"/>
  <g transform="translate(0, 48)">
    <rect x="22.96" y="16" width="2" height="22" fill="#5CBCE1"/>
    <rect x="29.96" y="16" width="2" height="22" fill="#5CBCE1"/>
    <rect x="15.96" y="16" width="2" height="22" fill="#5CBCE1"/>
    <path d="M44,7H33V5a5,5,0,0,0-5-5H20a5,5,0,0,0-5,5V7H4V9H6.68V39a9,9,0,0,0,9,9H32.23a9,9,0,0,0,9-9V9H44ZM17,5a3,3,0,0,1,3-3h8a3,3,0,0,1,3,3V7H17ZM39.23,39a7,7,0,0,1-7,7H15.68a7,7,0,0,1-7-7V9H39.23Z" fill="#5CBCE1"/>
  </g>
</svg>