<svg viewBox="0 0 100 100" xmlns="http://www.w3.org/2000/svg">
    <style>
        /* <![CDATA[ */

        @keyframes star-1 {
        0% {
        opacity: 0;
        transform: scale(0.33) rotate(15deg) translate(10%, 10%);
        }
        20% {
        opacity: 0;
        }
        100% {
        opacity: 1;
        transform: scale(0.33) rotate(24deg) translate(37%, -119%);
        }
        }

        @keyframes star-2 {
        0% {
        opacity: 0;
        transform: scale(0.23) rotate(35deg) translate(0%, 0%);
        }
        20% {
        opacity: 0;
        }
        100% {
        opacity: 1;
        transform: scale(0.23) rotate(32deg) translate(127%, -123%);
        }
        }

        @keyframes star-3 {
        0% {
        opacity: 0;
        transform: scale(0.16) rotate(20deg) translate(20%, 20%);
        }
        20% {
        opacity: 0;
        }
        100% {
        opacity: 1;
        transform: scale(0.27) rotate(7deg) translate(-29%, -103%);
        }
        }
        .shape {
            fill: #ffffff;
            stroke: #007aff;
            stroke-width: 10px;
            stroke-linecap: round;
            stroke-linejoin: round;
        }
        .container-circle {
            fill: #007aff;
            border-radius: 50%;
        }
        .star-1 {
            transform-origin: 50% 50%;
            animation: star-1 1s ease forwards;
        }
        .star-2 {
            transform-origin: 50% 50%;
            animation: star-2 1.5s ease forwards;
        }
        .star-3 {
            transform-origin: 50% 50%;
            animation: star-3 1.2s ease forwards;
        }
        .envelope {
            fill: #ffffff;
            width: 60%;
            height: 44%;
            transform: scale(0.9) rotate(20deg) translate(49%, -21%);
        }

        /* ]]> */
    </style>

    <circle class="container-circle" cx="50" cy="50" r="50"></circle>
    <polygon class="shape star-1" points="50 75 20.6107374 90.4508497 26.2235871 57.7254249 2.44717419 34.5491503 35.3053687 29.7745751 50 0 64.6946313 29.7745751 97.5528258 34.5491503 73.7764129 57.7254249 79.3892626 90.4508497"></polygon>
    <polygon class="shape star-2" points="50 75 20.6107374 90.4508497 26.2235871 57.7254249 2.44717419 34.5491503 35.3053687 29.7745751 50 0 64.6946313 29.7745751 97.5528258 34.5491503 73.7764129 57.7254249 79.3892626 90.4508497"></polygon>
    <polygon class="shape star-3" points="50 75 20.6107374 90.4508497 26.2235871 57.7254249 2.44717419 34.5491503 35.3053687 29.7745751 50 0 64.6946313 29.7745751 97.5528258 34.5491503 73.7764129 57.7254249 79.3892626 90.4508497"></polygon>
    <path class="envelope" d="M13.7944625,38.6465863 C13.7944625,36.4412465 15.5853039,34.6534653 17.7957298,34.6534653 L71.8682765,34.6534653 C74.0781154,34.6534653 75.8695438,36.441367 75.8695438,38.6465863 L75.8695438,75.2147998 C75.8695438,77.4201396 74.0787024,79.2079208 71.8682765,79.2079208 L17.7957298,79.2079208 C15.5858909,79.2079208 13.7944625,77.4200191 13.7944625,75.2147998 L13.7944625,38.6465863 Z M43.7869148,66.0629813 C44.3641012,66.6429678 45.2999051,66.6429678 45.8770915,66.0629813 L71.6559376,40.1590695 C72.233124,39.5790829 72.233124,38.6387389 71.6559376,38.0587523 C71.0787512,37.4787657 70.1429473,37.4787657 69.5657609,38.0587523 L60.2822341,47.3913536 C55.132157,52.5686549 44.8320028,62.9232577 44.8320028,62.9232577 L20.0982454,38.0587523 C19.5210591,37.4787657 18.5852551,37.4787657 18.0080687,38.0587523 C17.4308823,38.6387389 17.4308823,39.5790829 18.0080687,40.1590695 C18.0080687,40.1590695 29.1655435,51.3706746 34.744281,56.9764772 C37.7584922,60.0053119 43.7869148,66.0629813 43.7869148,66.0629813 Z"></path>
</svg>