<svg width="180" height="54" viewBox="0 0 180 54" xmlns="http://www.w3.org/2000/svg"><g fill="none"><rect fill="#000" width="179.719" height="54" rx="8.438"/><path d="M58.24 9.833h2.997c2.645 0 4.208 1.65 4.208 4.456 0 2.812-1.557 4.462-4.208 4.462h-2.997v-8.917zm1.112 1.001v6.915h1.811c2.021 0 3.146-1.236 3.146-3.448 0-2.231-1.119-3.467-3.146-3.467h-1.811zm10.981 7.978c-1.817 0-2.979-1.279-2.979-3.275 0-2.002 1.162-3.275 2.979-3.275 1.811 0 2.972 1.273 2.972 3.275 0 1.996-1.162 3.275-2.972 3.275zm0-.946c1.18 0 1.879-.865 1.879-2.33s-.698-2.33-1.879-2.33c-1.187 0-1.885.871-1.885 2.33 0 1.465.704 2.33 1.885 2.33zm13.242-5.543h-1.063l-1.285 5.228h-.025l-1.458-5.228h-1.038l-1.452 5.228h-.025l-1.285-5.228h-1.069l1.798 6.427h1.094l1.446-4.975h.025l1.452 4.975h1.094l1.792-6.427zm1.89 6.427h1.075v-3.726c0-1.088.63-1.811 1.669-1.811 1.001 0 1.483.569 1.483 1.607v3.93h1.075v-4.122c0-1.458-.816-2.367-2.225-2.367-.995 0-1.638.377-2.039 1.112h-.025v-1.051h-1.013v6.427zm7.736 0h1.075v-8.917h-1.075v8.917zm6.204.062c-1.817 0-2.979-1.279-2.979-3.275 0-2.002 1.162-3.275 2.979-3.275 1.811 0 2.972 1.273 2.972 3.275 0 1.996-1.162 3.275-2.972 3.275zm0-.946c1.18 0 1.879-.865 1.879-2.33s-.698-2.33-1.879-2.33c-1.187 0-1.885.871-1.885 2.33 0 1.465.704 2.33 1.885 2.33zm7.186.056c1.032 0 1.792-.698 1.792-1.613v-.513l-1.662.105c-.952.056-1.446.408-1.446 1.02 0 .587.513 1.001 1.316 1.001zm-.241.921c-1.304 0-2.169-.785-2.169-1.922 0-1.106.847-1.761 2.416-1.854l1.786-.105v-.531c0-.791-.519-1.224-1.452-1.224-.735 0-1.285.377-1.409.976h-1.026c.031-1.094 1.088-1.922 2.453-1.922 1.526 0 2.509.81 2.509 2.076v4.412h-1.02v-1.106h-.025c-.365.711-1.168 1.199-2.064 1.199zm7.922-.031c-1.613 0-2.75-1.31-2.75-3.275 0-1.965 1.131-3.275 2.725-3.275.921 0 1.656.402 2.046 1.106h.025v-3.535h1.075v8.917h-1.026v-1.088h-.019c-.414.742-1.149 1.149-2.076 1.149zm.204-5.599c-1.112 0-1.854.921-1.854 2.324 0 1.409.742 2.324 1.854 2.324 1.106 0 1.848-.933 1.848-2.324 0-1.384-.742-2.324-1.848-2.324zm11.653 5.599c-1.817 0-2.979-1.279-2.979-3.275 0-2.002 1.162-3.275 2.979-3.275 1.811 0 2.972 1.273 2.972 3.275 0 1.996-1.162 3.275-2.972 3.275zm0-.946c1.18 0 1.879-.865 1.879-2.33s-.698-2.33-1.879-2.33c-1.187 0-1.885.871-1.885 2.33 0 1.465.704 2.33 1.885 2.33zm5.066.884h1.075v-3.726c0-1.088.63-1.811 1.669-1.811 1.001 0 1.483.569 1.483 1.607v3.93h1.075v-4.122c0-1.458-.816-2.367-2.225-2.367-.995 0-1.638.377-2.039 1.112h-.025v-1.051h-1.013v6.427zm11.635-7.978v1.551h-.958v.884h.958v3.869c0 1.236.457 1.718 1.638 1.718.253 0 .55-.019.68-.049v-.902c-.074.012-.321.031-.445.031-.55 0-.797-.266-.797-.853v-3.813h1.248v-.884h-1.248v-1.551h-1.075zm4.535 7.978h1.075v-3.696c0-1.112.661-1.842 1.73-1.842 1.007 0 1.52.612 1.52 1.631v3.906h1.075v-4.103c0-1.434-.853-2.385-2.262-2.385-.983 0-1.644.377-2.039 1.112h-.025v-3.541h-1.075v8.917zm10.356-5.556c-.995 0-1.712.723-1.78 1.792h3.492c-.025-1.075-.711-1.792-1.712-1.792zm1.687 3.714h1.057c-.179 1.112-1.298 1.903-2.676 1.903-1.817 0-2.96-1.255-2.96-3.251s1.149-3.3 2.911-3.3c1.724 0 2.806 1.211 2.806 3.158v.408h-4.61v.062c0 1.205.748 1.99 1.879 1.99.791 0 1.415-.377 1.594-.97zm-89.213 25.498l-1.577-4.66h-6.571l-1.577 4.66h-2.784l6.225-17.24h2.891l6.225 17.24h-2.832zm-4.899-14.373l-2.569 7.563h5.209l-2.569-7.563h-.072zm15.866 1.673c3.19 0 5.293 2.521 5.293 6.416 0 3.907-2.091 6.416-5.245 6.416-1.792 0-3.214-.8-3.955-2.198h-.06v6.225h-2.581v-16.727h2.497v2.091h.048c.717-1.35 2.246-2.222 4.002-2.222zm-.681 10.645c2.007 0 3.321-1.661 3.321-4.229 0-2.545-1.314-4.218-3.321-4.218-1.971 0-3.298 1.709-3.298 4.218 0 2.533 1.326 4.229 3.298 4.229zm14.504-10.645c3.19 0 5.293 2.521 5.293 6.416 0 3.907-2.091 6.416-5.245 6.416-1.792 0-3.214-.8-3.955-2.198h-.06v6.225h-2.581v-16.727h2.497v2.091h.048c.717-1.35 2.246-2.222 4.002-2.222zm-.681 10.645c2.007 0 3.321-1.661 3.321-4.229 0-2.545-1.314-4.218-3.321-4.218-1.971 0-3.298 1.709-3.298 4.218 0 2.533 1.326 4.229 3.298 4.229zm12.461-2.748c.167 3.118 2.748 5.09 6.571 5.09 4.086 0 6.655-2.019 6.655-5.245 0-2.521-1.47-3.943-5.006-4.779l-1.9-.466c-2.222-.55-3.13-1.266-3.13-2.485 0-1.529 1.422-2.581 3.501-2.581 2.079 0 3.501 1.039 3.656 2.76h2.605c-.084-2.975-2.581-5.018-6.225-5.018-3.68 0-6.273 2.043-6.273 5.018 0 2.401 1.47 3.883 4.636 4.648l2.234.538c2.234.55 3.178 1.35 3.178 2.688 0 1.541-1.565 2.664-3.74 2.664-2.27 0-3.931-1.123-4.122-2.832h-2.64zm16.07-10.741v2.975h-1.828v2.043h1.828v7.204c0 2.437.992 3.393 3.536 3.393.573 0 1.147-.048 1.434-.119v-2.031c-.167.024-.585.06-.848.06-1.051 0-1.529-.502-1.529-1.577v-6.93h2.39v-2.043h-2.39v-2.975h-2.593zm12.497 15.699c-3.656 0-5.962-2.473-5.962-6.44 0-3.955 2.33-6.44 5.962-6.44 3.644 0 5.962 2.485 5.962 6.44 0 3.967-2.306 6.44-5.962 6.44zm0-2.127c2.091 0 3.333-1.589 3.333-4.313 0-2.712-1.243-4.313-3.333-4.313-2.091 0-3.333 1.613-3.333 4.313 0 2.724 1.243 4.313 3.333 4.313zm7.957 1.971h2.581v-7.455c0-1.768 1.027-2.891 2.688-2.891.502 0 .956.072 1.159.155v-2.413c-.203-.048-.514-.096-.884-.096-1.482 0-2.628.848-3.023 2.27h-.06v-2.139h-2.461v12.569zm13.286-10.633c-1.78 0-3.071 1.29-3.202 3.19h6.284c-.06-1.924-1.29-3.19-3.082-3.19zm3.071 6.942h2.449c-.346 2.282-2.569 3.847-5.412 3.847-3.656 0-5.926-2.449-5.926-6.38 0-3.943 2.282-6.5 5.818-6.5 3.477 0 5.663 2.39 5.663 6.201v.884h-8.877v.155c0 2.151 1.35 3.56 3.381 3.56 1.434 0 2.557-.681 2.903-1.768zm-119.012 1.537c-1.481 2.156-3.012 4.298-5.43 4.343-2.38.045-3.143-1.403-5.858-1.403-2.718 0-3.569 1.358-5.816 1.448-2.334.087-4.109-2.328-5.602-4.474-3.05-4.387-5.377-12.406-2.247-17.817 1.55-2.687 4.328-4.388 7.338-4.432 2.292-.042 4.458 1.539 5.858 1.539 1.402 0 4.031-1.898 6.794-1.619 1.157.048 4.403.464 6.488 3.501-.165.108-3.875 2.257-3.83 6.734.045 5.348 4.707 7.126 4.762 7.15-.042.126-.745 2.538-2.458 5.03zm-10.153-28.291c1.28-1.493 3.442-2.604 5.227-2.678.228 2.074-.61 4.151-1.848 5.647-1.24 1.494-3.271 2.658-5.263 2.502-.271-2.029.734-4.145 1.884-5.471z" fill="#fff"/></g></svg>