<svg xmlns="http://www.w3.org/2000/svg" viewBox="6181.706 3974.377 561.978 460.979"><defs><style>.a{fill:#f2f2f2;}.b{fill:none;opacity:0.2;}.c{fill:url(#a);}.d{fill:#e8e8e8;}.e{fill:#ddd;}.f{fill:#fff;}</style><linearGradient id="a" x1=".692" y1=".517" x2="-.445" y2=".066" gradientUnits="objectBoundingBox"><stop offset="0" stop-color="#fff"/><stop offset="1" stop-color="#f2f2f2"/></linearGradient></defs><path class="a" d="M6276.901 4244.254l50.267 25.821v-38.221z"/><path class="b" d="M6181.706 3974.377h561.978v460.98h-561.978z"/><path class="c" d="M6717.735 4028.498l-479.683-38.22 7.711 50.474-47.746 4.814 40.035 239.243 89.116-14.731v-25.824h122.627v81.984l91.636 11.087-24.762 26.113-43.3 45.514 162.069-60.248v-79.358l82.295-25.091z"/><path class="d" d="M6255.253 4039.731l-57.236 5.835 40.035 239.243 89.116-14.734z"/><path class="a" d="M6516.671 4363.438l-43.3 45.514 162.069-60.248-2.817-.729z"/><path class="e" d="M6551.959 4326.239l-35.29 37.2 115.954-15.463z"/><path class="f" d="M6449.795 4326.239l185.645 22.465v-84.318z"/><path class="e" d="M6449.795 4213.911v65.354l264.975-35.3z"/><path class="a" d="M6449.795 4279.262v46.973l267.94-81.984-2.966-.292z"/><path class="e" d="M6327.168 4270.075l-50.267-25.82 50.267-.292z"/><path class="f" d="M6717.735 4244.254h-440.834l-38.849-253.976 479.683 38.22zm0-215.756v215.756h-440.834z"/></svg>