<?xml version="1.0" encoding="UTF-8"?>
<svg width="180px" height="54px" viewBox="0 0 180 54" version="1.1" xmlns="http://www.w3.org/2000/svg" xmlns:xlink="http://www.w3.org/1999/xlink">
    <defs>
        <linearGradient x1="80.7581725%" y1="49.99766%" x2="-157.297164%" y2="49.99766%" id="linearGradient-1">
            <stop stop-color="#FEDF00" offset="0%"></stop>
            <stop stop-color="#F89B1B" offset="100%"></stop>
        </linearGradient>
        <linearGradient x1="86.25%" y1="17.8456659%" x2="-50.1427543%" y2="194.803514%" id="linearGradient-2">
            <stop stop-color="#EF4547" offset="0%"></stop>
            <stop stop-color="#C7186D" offset="100%"></stop>
        </linearGradient>
        <linearGradient x1="-50.7515595%" y1="-95.6040529%" x2="60.6106046%" y2="48.8860652%" id="linearGradient-3">
            <stop stop-color="#279E70" offset="0%"></stop>
            <stop stop-color="#73C168" offset="100%"></stop>
        </linearGradient>
    </defs>
    <g id="Page-1" stroke="none" stroke-width="1" fill="none" fill-rule="evenodd">
        <g id="googleplay-bg">
            <path d="M173.333333,53.6585366 L6.66666667,53.6585366 C3,53.6585366 0,50.6402439 0,46.9512195 L0,6.70731707 C0,3.01829268 3,0 6.66666667,0 L173.333333,0 C177,0 180,3.01829268 180,6.70731707 L180,46.9512195 C180,50.6402439 177,53.6585366 173.333333,53.6585366 Z" id="Fill-2" fill="#000000"></path>
            <path d="M63.224,13.7419512 C63.224,14.8660976 62.8933333,15.7608537 62.2306667,16.4289024 C61.4773333,17.2217073 60.4973333,17.6187805 59.292,17.6187805 C58.1373333,17.6187805 57.1546667,17.2163415 56.348,16.4114634 C55.5386667,15.6052439 55.136,14.6071951 55.136,13.4146341 C55.136,12.2234146 55.5386667,11.2253659 56.348,10.4191463 C57.1546667,9.61292683 58.1373333,9.2104878 59.292,9.2104878 C59.864,9.2104878 60.4133333,9.32317073 60.9333333,9.54853659 C61.4546667,9.77390244 61.872,10.0730488 62.1853333,10.4473171 L61.4813333,11.1556098 C60.952,10.5184146 60.2226667,10.2004878 59.292,10.2004878 C58.4493333,10.2004878 57.7213333,10.4982927 57.1066667,11.0939024 C56.492,11.6895122 56.1853333,12.4635366 56.1853333,13.4146341 C56.1853333,14.3670732 56.492,15.1410976 57.1066667,15.7367073 C57.7213333,16.3323171 58.4493333,16.630122 59.292,16.630122 C60.1853333,16.630122 60.9293333,16.3309756 61.5266667,15.7313415 C61.9133333,15.3409756 62.1373333,14.7976829 62.196,14.1014634 L59.292,14.1014634 L59.292,13.1342683 L63.168,13.1342683 C63.2053333,13.344878 63.224,13.5460976 63.224,13.7419512 Z" id="Fill-4" fill="#FFFFFF"></path>
            <path d="M63.224,13.7419512 L63.0906667,13.7419512 C63.0893333,14.8406098 62.7706667,15.692439 62.136,16.3336585 L62.1346667,16.335 L62.1346667,16.3363415 C61.4053333,17.1023171 60.4693333,17.4832927 59.292,17.4846341 C58.168,17.4832927 57.2266667,17.0982927 56.4413333,16.3162195 C55.6573333,15.5328049 55.2706667,14.5763415 55.2693333,13.4146341 C55.2706667,12.2529268 55.6573333,11.2978049 56.4413333,10.5143902 C57.2266667,9.73231707 58.168,9.34597561 59.292,9.34463415 C59.8466667,9.34463415 60.376,9.45329268 60.8813333,9.67195122 C61.3866667,9.89060976 61.7853333,10.1776829 62.0826667,10.5331707 L62.1853333,10.4473171 L62.0906667,10.3520732 L61.388,11.0603659 L61.4813333,11.1556098 L61.584,11.0697561 C61.0293333,10.4003659 60.252,10.0636585 59.292,10.0663415 C58.4173333,10.065 57.6493333,10.3789024 57.0146667,10.9973171 C56.372,11.6184146 56.0506667,12.4353659 56.052,13.4146341 C56.0506667,14.3952439 56.372,15.2121951 57.0146667,15.8332927 C57.6493333,16.4517073 58.4173333,16.7656098 59.292,16.7642683 C60.2146667,16.7656098 61.0013333,16.4503659 61.62,15.8265854 C62.0333333,15.4093902 62.268,14.8312195 62.3293333,14.1121951 L62.3426667,13.9673171 L59.4253333,13.9673171 L59.4253333,13.2684146 L63.168,13.2684146 L63.168,13.1342683 L63.0373333,13.1584146 C63.0733333,13.3609756 63.0906667,13.5541463 63.0906667,13.7419512 L63.3573333,13.7419512 C63.3573333,13.5380488 63.3386667,13.327439 63.2986667,13.110122 L63.28,13.000122 L59.1586667,13.000122 L59.1586667,14.1014634 L59.1586667,14.2356098 L62.196,14.2356098 L62.196,14.1014634 L62.064,14.0893902 C62.0053333,14.7641463 61.792,15.272561 61.432,15.6360976 C60.8586667,16.2102439 60.156,16.4946341 59.292,16.4959756 C58.48,16.4946341 57.7933333,16.2142683 57.2,15.640122 C56.612,15.0686585 56.32,14.3389024 56.3186667,13.4146341 C56.32,12.4917073 56.612,11.7619512 57.2,11.1904878 C57.7933333,10.6163415 58.48,10.3359756 59.292,10.3346341 C60.1933333,10.3359756 60.8733333,10.6364634 61.38,11.2414634 L61.4733333,11.3541463 L62.2786667,10.542561 L62.3653333,10.4553659 L62.2866667,10.3614634 C61.9586667,9.96841463 61.5226667,9.65719512 60.9866667,9.42512195 C60.4493333,9.19304878 59.8813333,9.07634146 59.292,9.07634146 C58.1053333,9.075 57.0826667,9.49487805 56.2533333,10.3239024 C55.4213333,11.1515854 55.0013333,12.192561 55.0026667,13.4146341 C55.0013333,14.6367073 55.4213333,15.6776829 56.2533333,16.5067073 C57.0826667,17.3357317 58.1066667,17.7542683 59.292,17.7529268 C60.5253333,17.7542683 61.5506667,17.342439 62.3266667,16.5214634 L62.2306667,16.4289024 L62.3253333,16.5228049 C63.016,15.8292683 63.3586667,14.8902439 63.3573333,13.7419512 L63.224,13.7419512 Z" id="Fill-5" fill="#FFFFFF"></path>
            <polygon id="Fill-6" fill="#FFFFFF" points="69.3693333 10.3802439 65.7266667 10.3802439 65.7266667 12.9317073 69.012 12.9317073 69.012 13.8989024 65.7266667 13.8989024 65.7266667 16.4503659 69.3693333 16.4503659 69.3693333 17.4390244 64.6986667 17.4390244 64.6986667 9.3902439 69.3693333 9.3902439"></polygon>
            <polygon id="Fill-7" fill="#FFFFFF" points="69.3693333 10.3802439 69.3693333 10.2460976 65.5933333 10.2460976 65.5933333 13.0658537 68.8786667 13.0658537 68.8786667 13.7647561 65.5933333 13.7647561 65.5933333 16.5845122 69.236 16.5845122 69.236 17.304878 64.832 17.304878 64.832 9.52439024 69.236 9.52439024 69.236 10.3802439 69.3693333 10.3802439 69.3693333 10.2460976 69.3693333 10.3802439 69.5026667 10.3802439 69.5026667 9.25609756 64.5653333 9.25609756 64.5653333 17.5731707 69.5026667 17.5731707 69.5026667 16.3162195 65.86 16.3162195 65.86 14.0330488 69.1453333 14.0330488 69.1453333 12.797561 65.86 12.797561 65.86 10.5143902 69.5026667 10.5143902 69.5026667 10.3802439"></polygon>
            <polygon id="Fill-8" fill="#FFFFFF" points="73.704 17.4390244 72.676 17.4390244 72.676 10.3802439 70.4413333 10.3802439 70.4413333 9.3902439 75.9386667 9.3902439 75.9386667 10.3802439 73.704 10.3802439"></polygon>
            <polygon id="Fill-9" fill="#FFFFFF" points="73.704 17.4390244 73.704 17.304878 72.8093333 17.304878 72.8093333 10.2460976 70.5746667 10.2460976 70.5746667 9.52439024 75.8053333 9.52439024 75.8053333 10.2460976 73.5706667 10.2460976 73.5706667 17.4390244 73.704 17.4390244 73.704 17.304878 73.704 17.4390244 73.8373333 17.4390244 73.8373333 10.5143902 76.072 10.5143902 76.072 9.25609756 70.308 9.25609756 70.308 10.3802439 70.308 10.5143902 72.5426667 10.5143902 72.5426667 17.5731707 73.8373333 17.5731707 73.8373333 17.4390244"></polygon>
            <polygon id="Fill-10" fill="#FFFFFF" points="79.9173333 17.4390244 80.944 17.4390244 80.944 9.3902439 79.9173333 9.3902439"></polygon>
            <polygon id="Fill-11" fill="#FFFFFF" points="79.9173333 17.4390244 80.0506667 17.4390244 80.0506667 9.52439024 80.8106667 9.52439024 80.8106667 17.304878 79.9173333 17.304878 79.9173333 17.4390244 80.0506667 17.4390244 79.9173333 17.4390244 79.9173333 17.5731707 81.0773333 17.5731707 81.0773333 9.25609756 79.9173333 9.25609756 79.784 9.25609756 79.784 17.5731707 79.9173333 17.5731707"></polygon>
            <polygon id="Fill-12" fill="#FFFFFF" points="85.504 17.4390244 84.4746667 17.4390244 84.4746667 10.3802439 82.2413333 10.3802439 82.2413333 9.3902439 87.7386667 9.3902439 87.7386667 10.3802439 85.504 10.3802439"></polygon>
            <polygon id="Fill-13" fill="#FFFFFF" points="85.504 17.4390244 85.504 17.304878 84.608 17.304878 84.608 10.2460976 82.3746667 10.2460976 82.3746667 9.52439024 87.6053333 9.52439024 87.6053333 10.2460976 85.3706667 10.2460976 85.3706667 17.4390244 85.504 17.4390244 85.504 17.304878 85.504 17.4390244 85.6373333 17.4390244 85.6373333 10.5143902 87.872 10.5143902 87.872 9.25609756 82.108 9.25609756 82.108 10.3802439 82.108 10.5143902 84.3413333 10.5143902 84.3413333 17.5731707 85.6373333 17.5731707 85.6373333 17.4390244"></polygon>
            <path d="M93.0386667,15.7259756 C93.6306667,16.3282927 94.3546667,16.630122 95.212,16.630122 C96.068,16.630122 96.7933333,16.3282927 97.3853333,15.7259756 C97.9773333,15.1223171 98.2746667,14.3523171 98.2746667,13.4146341 C98.2746667,12.4782927 97.9773333,11.7082927 97.3853333,11.1046341 C96.7933333,10.5023171 96.068,10.2004878 95.212,10.2004878 C94.3546667,10.2004878 93.6306667,10.5023171 93.0386667,11.1046341 C92.4466667,11.7082927 92.1506667,12.4782927 92.1506667,13.4146341 C92.1506667,14.3523171 92.4466667,15.1223171 93.0386667,15.7259756 Z M98.1453333,16.3993902 C97.3586667,17.2136585 96.3813333,17.6187805 95.212,17.6187805 C94.0426667,17.6187805 93.064,17.2136585 92.28,16.3993902 C91.4933333,15.5864634 91.1013333,14.5910976 91.1013333,13.4146341 C91.1013333,12.2381707 91.4933333,11.2441463 92.28,10.4312195 C93.064,9.61695122 94.0426667,9.2104878 95.212,9.2104878 C96.3746667,9.2104878 97.3493333,9.61963415 98.14,10.4365854 C98.9293333,11.2535366 99.324,12.2462195 99.324,13.4146341 C99.324,14.5910976 98.9306667,15.5864634 98.1453333,16.3993902 Z" id="Fill-14" fill="#FFFFFF"></path>
            <path d="M93.0386667,15.7259756 L92.944,15.819878 C93.5573333,16.4476829 94.324,16.7656098 95.212,16.7642683 C96.1,16.7656098 96.8666667,16.4476829 97.48,15.819878 C98.0973333,15.1920732 98.4093333,14.3804878 98.408,13.4146341 C98.4093333,12.450122 98.0973333,11.6385366 97.48,11.0107317 C96.8666667,10.3829268 96.1,10.065 95.212,10.0663415 C94.324,10.065 93.5573333,10.3829268 92.944,11.0107317 C92.3266667,11.6385366 92.016,12.450122 92.0173333,13.4146341 C92.016,14.3804878 92.3266667,15.1920732 92.944,15.819878 L93.0386667,15.7259756 L93.1333333,15.6307317 C92.568,15.052561 92.2853333,14.3241463 92.284,13.4146341 C92.2853333,12.5064634 92.568,11.7780488 93.1333333,11.1985366 L93.1333333,11.199878 C93.704,10.6203659 94.3853333,10.3359756 95.212,10.3346341 C96.0373333,10.3359756 96.72,10.6203659 97.2893333,11.1985366 L97.2893333,11.199878 C97.8573333,11.7780488 98.14,12.5064634 98.1413333,13.4146341 C98.14,14.3241463 97.8573333,15.052561 97.2893333,15.6307317 C96.72,16.2102439 96.0373333,16.4946341 95.212,16.4959756 C94.3853333,16.4946341 93.704,16.2102439 93.1333333,15.6307317 L93.0386667,15.7259756 Z M98.1453333,16.3993902 L98.0493333,16.3054878 C97.2853333,17.0942683 96.3506667,17.4832927 95.212,17.4846341 C94.0733333,17.4832927 93.1373333,17.0942683 92.3746667,16.3054878 L92.3706667,16.3028049 L92.3746667,16.3054878 C91.612,15.5153659 91.236,14.5615854 91.2346667,13.4146341 C91.236,12.2690244 91.612,11.3152439 92.3746667,10.525122 C93.1373333,9.73634146 94.0733333,9.34597561 95.212,9.34463415 C96.344,9.34597561 97.276,9.73768293 98.044,10.5304878 C98.8106667,11.3246341 99.1893333,12.2757317 99.1906667,13.4146341 C99.1893333,14.5615854 98.8106667,15.5153659 98.0493333,16.3054878 L98.1453333,16.3993902 L98.2413333,16.4932927 C99.0493333,15.657561 99.4586667,14.6219512 99.4573333,13.4146341 C99.4586667,12.2153659 99.048,11.182439 98.236,10.3426829 C97.4226667,9.50158537 96.4053333,9.075 95.212,9.07634146 C94.012,9.075 92.9906667,9.49890244 92.184,10.3373171 C91.3733333,11.1730488 90.9666667,12.2086585 90.968,13.4146341 C90.9666667,14.6219512 91.3733333,15.657561 92.184,16.4932927 L92.188,16.4973171 L92.184,16.4932927 C92.9906667,17.3317073 94.012,17.7542683 95.212,17.7529268 C96.412,17.7542683 97.432,17.3317073 98.2413333,16.4932927 L98.1453333,16.3993902 Z" id="Fill-15" fill="#FFFFFF"></path>
            <polygon id="Fill-16" fill="#FFFFFF" points="100.766667 17.4390244 100.766667 9.3902439 102.017333 9.3902439 105.905333 15.6521951 105.949333 15.6521951 105.905333 14.1014634 105.905333 9.3902439 106.934667 9.3902439 106.934667 17.4390244 105.861333 17.4390244 101.793333 10.8752439 101.749333 10.8752439 101.793333 12.4259756 101.793333 17.4390244"></polygon>
            <polygon id="Fill-17" fill="#FFFFFF" points="100.766667 17.4390244 100.9 17.4390244 100.9 9.52439024 101.944 9.52439024 105.832 15.7863415 106.086667 15.7863415 106.038667 14.0987805 106.038667 9.52439024 106.801333 9.52439024 106.801333 17.304878 105.936 17.304878 101.868 10.7410976 101.749333 10.7410976 101.612 10.7410976 101.66 12.4286585 101.66 17.304878 100.766667 17.304878 100.766667 17.4390244 100.9 17.4390244 100.766667 17.4390244 100.766667 17.5731707 101.926667 17.5731707 101.926667 12.4246341 101.882667 10.8712195 101.749333 10.8752439 101.749333 11.0093902 101.793333 11.0093902 101.793333 10.8752439 101.68 10.9463415 105.788 17.5731707 107.068 17.5731707 107.068 9.25609756 105.905333 9.25609756 105.772 9.25609756 105.772 14.1028049 105.816 15.6562195 105.949333 15.6521951 105.949333 15.5180488 105.905333 15.5180488 105.905333 15.6521951 106.018667 15.5810976 102.092 9.25609756 100.766667 9.25609756 100.633333 9.25609756 100.633333 17.5731707 100.766667 17.5731707"></polygon>
            <path d="M142.581333,40.2452439 L145.069333,40.2452439 L145.069333,23.4742683 L142.581333,23.4742683 L142.581333,40.2452439 Z M164.990667,29.514878 L162.138667,36.7856098 L162.053333,36.7856098 L159.093333,29.514878 L156.413333,29.514878 L160.852,39.6778049 L158.321333,45.3293902 L160.917333,45.3293902 L167.757333,29.514878 L164.990667,29.514878 Z M150.881333,38.3390244 C150.065333,38.3390244 148.929333,37.929878 148.929333,36.9157317 C148.929333,35.6212195 150.345333,35.124878 151.566667,35.124878 C152.661333,35.124878 153.174667,35.3623171 153.84,35.6856098 C153.646667,37.2390244 152.317333,38.3390244 150.881333,38.3390244 Z M151.181333,29.1486585 C149.38,29.1486585 147.514667,29.9468293 146.742667,31.7162195 L148.950667,32.6445122 C149.422667,31.7162195 150.301333,31.4143902 151.224,31.4143902 C152.510667,31.4143902 153.818667,32.1910976 153.84,33.5714634 L153.84,33.7445122 C153.389333,33.4856098 152.425333,33.0965854 151.245333,33.0965854 C148.865333,33.0965854 146.441333,34.412561 146.441333,36.8728049 C146.441333,39.1157317 148.393333,40.5618293 150.58,40.5618293 C152.253333,40.5618293 153.174667,39.8065854 153.754667,38.922561 L153.84,38.922561 L153.84,40.2170732 L156.241333,40.2170732 L156.241333,33.787439 C156.241333,30.8093902 154.033333,29.1486585 151.181333,29.1486585 Z M135.805333,31.5565854 L132.266667,31.5565854 L132.266667,25.8084146 L135.805333,25.8084146 C137.665333,25.8084146 138.721333,27.3578049 138.721333,28.6831707 C138.721333,29.9830488 137.665333,31.5565854 135.805333,31.5565854 Z M135.741333,23.4742683 L129.78,23.4742683 L129.78,40.2452439 L132.266667,40.2452439 L132.266667,33.8907317 L135.741333,33.8907317 C138.498667,33.8907317 141.209333,31.882561 141.209333,28.6831707 C141.209333,25.482439 138.498667,23.4742683 135.741333,23.4742683 Z M103.232,38.3430488 C101.514667,38.3430488 100.074667,36.8942683 100.074667,34.9062195 C100.074667,32.8967073 101.514667,31.4278049 103.232,31.4278049 C104.929333,31.4278049 106.261333,32.8967073 106.261333,34.9062195 C106.261333,36.8942683 104.929333,38.3430488 103.232,38.3430488 Z M106.089333,30.4552439 L106.004,30.4552439 C105.445333,29.7845122 104.370667,29.1795122 103.017333,29.1795122 C100.182667,29.1795122 97.5826667,31.6867073 97.5826667,34.9062195 C97.5826667,38.1056098 100.182667,40.59 103.017333,40.59 C104.370667,40.59 105.445333,39.985 106.004,39.2941463 L106.089333,39.2941463 L106.089333,40.115122 C106.089333,42.2976829 104.929333,43.4647561 103.06,43.4647561 C101.536,43.4647561 100.590667,42.3620732 100.204,41.4337805 L98.0346667,42.3406098 C98.6573333,43.8537805 100.310667,45.7130488 103.06,45.7130488 C105.982667,45.7130488 108.452,43.9839024 108.452,39.7690244 L108.452,29.5256098 L106.089333,29.5256098 L106.089333,30.4552439 Z M110.170667,40.2452439 L112.662667,40.2452439 L112.662667,23.4742683 L110.170667,23.4742683 L110.170667,40.2452439 Z M116.336,34.7117073 C116.270667,32.5076829 118.033333,31.3835366 119.3,31.3835366 C120.289333,31.3835366 121.126667,31.8812195 121.405333,32.594878 L116.336,34.7117073 Z M124.069333,32.8108537 C123.597333,31.535122 122.157333,29.1795122 119.214667,29.1795122 C116.293333,29.1795122 113.865333,31.4921951 113.865333,34.8847561 C113.865333,38.0841463 116.270667,40.59 119.493333,40.59 C122.093333,40.59 123.597333,38.9909756 124.22,38.0613415 L122.286667,36.7654878 C121.642667,37.7165854 120.761333,38.3430488 119.493333,38.3430488 C118.225333,38.3430488 117.324,37.7595122 116.744,36.6139024 L124.326667,33.4587805 L124.069333,32.8108537 Z M63.6573333,30.930122 L63.6573333,33.350122 L69.4146667,33.350122 C69.2426667,34.7117073 68.792,35.7057317 68.104,36.3979268 C67.2666667,37.2403659 65.956,38.17 63.6573333,38.17 C60.1133333,38.17 57.3426667,35.2952439 57.3426667,31.7296341 C57.3426667,28.1640244 60.1133333,25.2892683 63.6573333,25.2892683 C65.5693333,25.2892683 66.9653333,26.0458537 67.9973333,27.0184146 L69.6933333,25.3107317 C68.2546667,23.9276829 66.3426667,22.8692683 63.6573333,22.8692683 C58.8026667,22.8692683 54.7213333,26.8453659 54.7213333,31.7296341 C54.7213333,36.6139024 58.8026667,40.59 63.6573333,40.59 C66.2786667,40.59 68.2546667,39.7260976 69.8013333,38.1056098 C71.3906667,36.5052439 71.8853333,34.2582927 71.8853333,32.4432927 C71.8853333,31.8812195 71.8413333,31.3620732 71.756,30.930122 L63.6573333,30.930122 Z M78.4293333,38.3430488 C76.7106667,38.3430488 75.2293333,36.9170732 75.2293333,34.8847561 C75.2293333,32.8323171 76.7106667,31.4278049 78.4293333,31.4278049 C80.148,31.4278049 81.6293333,32.8323171 81.6293333,34.8847561 C81.6293333,36.9170732 80.148,38.3430488 78.4293333,38.3430488 Z M78.4293333,29.1795122 C75.2933333,29.1795122 72.7373333,31.5780488 72.7373333,34.8847561 C72.7373333,38.17 75.2933333,40.59 78.4293333,40.59 C81.5653333,40.59 84.1213333,38.17 84.1213333,34.8847561 C84.1213333,31.5780488 81.5653333,29.1795122 78.4293333,29.1795122 Z M90.8466667,38.3430488 C89.1293333,38.3430488 87.6466667,36.9170732 87.6466667,34.8847561 C87.6466667,32.8323171 89.1293333,31.4278049 90.8466667,31.4278049 C92.5653333,31.4278049 94.048,32.8323171 94.048,34.8847561 C94.048,36.9170732 92.5653333,38.3430488 90.8466667,38.3430488 Z M90.8466667,29.1795122 C87.7106667,29.1795122 85.1546667,31.5780488 85.1546667,34.8847561 C85.1546667,38.17 87.7106667,40.59 90.8466667,40.59 C93.984,40.59 96.54,38.17 96.54,34.8847561 C96.54,31.5780488 93.984,29.1795122 90.8466667,29.1795122 Z" id="Fill-18" fill="#FFFFFF"></path>
            <path d="M13.9133333,10.1253659 C13.5253333,10.5371951 13.296,11.1784146 13.296,12.0087805 L13.296,41.6510976 C13.296,42.4814634 13.5253333,43.1226829 13.9133333,43.5345122 L14.0106667,43.6310976 L30.516,27.025122 L30.516,26.6334146 L14.0106667,10.027439 L13.9133333,10.1253659 Z" id="Fill-19" fill="#5BC9F4"></path>
            <path d="M36.0173333,32.5626829 L30.516,27.025122 L30.516,26.6334146 L36.0186667,21.0971951 L36.1426667,21.1682927 L42.6613333,24.894878 C44.5226667,25.9586585 44.5226667,27.7012195 42.6613333,28.765 L36.1426667,32.4915854 L36.0173333,32.5626829 Z" id="Fill-20" fill="url(#linearGradient-1)"></path>
            <path d="M36.1426667,32.4915854 L30.516,26.8292683 L13.9133333,43.5345122 C14.5266667,44.1878049 15.54,44.2696341 16.6813333,43.6163415 L36.1426667,32.4915854 Z" id="Fill-22" fill="url(#linearGradient-2)"></path>
            <path d="M36.1426667,21.1682927 L16.6813333,10.0435366 C15.54,9.3902439 14.5266667,9.47073171 13.9133333,10.1253659 L30.516,26.8292683 L36.1426667,21.1682927 Z" id="Fill-24" fill="url(#linearGradient-3)"></path>
        </g>
    </g>
</svg>