<svg xmlns="http://www.w3.org/2000/svg" width="460.603" height="460.603" viewBox="0 0 460.603 460.603"><path d="M110.017 43.465v373.681c0 23.968 19.497 43.457 43.457 43.457h153.655c23.963 0 43.457-19.499 43.457-43.457v-373.681c0-23.968-19.494-43.465-43.457-43.465h-153.655c-23.96.008-43.457 19.505-43.457 43.465zm197.112 405.286h-153.655c-17.427 0-31.607-14.183-31.607-31.605v-.752c0-.421 3.539-.751 7.898-.751h201.073c4.361 0 7.9.33 7.9.751v.752c0 17.422-14.172 31.605-31.609 31.605zm23.709-39.034h-201.073c-4.359 0-7.898-2.849-7.898-6.368 0-3.514 2.653-6.367 5.934-6.367h205.013s5.932 2.854 5.932 6.367c-.008 3.524-3.542 6.368-7.908 6.368zm-194.144-26.553v-298.539c0-4.362 3.539-7.901 7.901-7.901h171.419c4.362 0 7.901 3.54 7.901 7.901v298.54c0 4.361-3.539 7.901-7.901 7.901h-171.419c-4.369-.001-7.901-3.541-7.901-7.902zm170.435-371.307c17.427 0 31.609 14.18 31.609 31.615v339.701c0 4.362-1.995 7.901-4.447 7.901-2.458 0-4.459-3.539-4.459-7.901v-309.413c0-1.635-1.325-2.96-2.961-2.96h-193.141c-1.635 0-2.96 1.325-2.96 2.96v309.404c0 4.361-1.993 7.901-4.448 7.901-2.458 0-4.449-3.54-4.449-7.901v-339.699c0-17.435 14.18-31.615 31.608-31.615h153.647v.007zm-17.443 32.809c5.941 0 10.785-4.834 10.785-10.783s-4.839-10.783-10.785-10.783-10.78 4.834-10.78 10.783c-.001 5.938 4.833 10.783 10.78 10.783zm0-15.643c2.682 0 4.859 2.181 4.859 4.859 0 2.676-2.178 4.857-4.859 4.857-2.676 0-4.859-2.182-4.859-4.857-.001-2.678 2.183-4.859 4.859-4.859zm-82.058 7.823h45.349c1.636 0 2.961-1.328 2.961-2.963s-1.325-2.963-2.961-2.963h-45.349c-1.635 0-2.963 1.328-2.963 2.963s1.328 2.963 2.963 2.963z"/></svg>