<svg xmlns="http://www.w3.org/2000/svg" viewBox="0 0 100 100" enable-background="new 0 0 100 100"><style type="text/css">.st0{fill:#121212;} .st1{fill:none;stroke:#121212;stroke-width:2;stroke-miterlimit:10;}</style><path class="st0" d="M44 26l30 30-4 26-13.4 13.4-.8-17.9v-.8l-.5-.5-31.5-31.4-.5-.5h-.8l-17.9-.9 13.4-13.4 26-4m.7-2.1l-27.6 4.2-17.1 17.1 22.4 1.1 31.4 31.4 1.1 22.4 17.1-17.1 4.2-27.6-31.5-31.5zm42.3-21.9c3.3 0 6.6.4 9.8 1.2 4.8 19.2-5.8 36.2-12.9 43.3l-39.3 39.4-30.5-30.5 39.3-39.3c6.6-6.5 19.2-14.1 33.6-14.1m0-2c-15 0-28.1 7.8-35 14.7l-40.7 40.7 33.3 33.3 40.7-40.7c8.5-8.5 18.6-26.8 13.1-46.4-3.9-1.1-7.7-1.6-11.4-1.6z"/><path class="st1" d="M14 56.9l-3.7 13.2 10.4 10.4m22.7 5.7l-13.2 3.8-10.4-10.5"/><ellipse transform="matrix(.707 -.707 .707 .707 -21.49 49.677)" class="st1" cx="49.2" cy="50.8" rx="8.3" ry="8.3"/><path class="st1" d="M10.2 78.3l-8.8 8.8m10.3 1.5l-8.8 8.8m19-7.3l-8.8 8.8"/></svg>