<svg xmlns="http://www.w3.org/2000/svg" viewBox="0 0 155.123 155.123" enable-background="new 0 0 155.123 155.123"><path d="M150.669 84.068c7.858-7.823 5.43-23.647-8.181-23.647l-35.813.024c1.36-7.584 3.33-20.156 3.252-21.343-.752-11.242-7.918-24.924-8.228-25.484-1.307-2.434-7.906-5.734-14.547-4.32-8.586 1.838-9.463 7.315-9.428 8.825 0 0 .37 14.983.406 18.981-4.105 9.016-18.259 32.71-22.549 34.536-1.026-.621-2.19-.955-3.401-.955h-45.246c-3.843 0-6.934 3.108-6.934 6.933l.006 62.533c.269 3.371 3.133 6.015 6.516 6.015h40.64c3.604 0 6.534-2.93 6.534-6.534v-2.076s1.51-.113 2.196.328c2.613 1.659 5.842 3.747 10.054 3.747h60.647c22.674 0 20.24-20.126 18.169-22.871 3.831-4.171 6.2-11.528 2.966-17.34 2.482-2.631 6.85-9.863 2.941-17.352zm-104.903 55.552h-39.256v-62.408h39.256v62.408zm94.324-56.089l-.37 1.545c10.448 2.971 4.887 15.013-2.608 15.794l-.37 1.545c10.018 2.548 5.239 14.947-2.608 15.794l-.37 1.539c8.181 1.343 6.2 15.305-6.194 15.305l-61.686.024c-4.356 0-8.324-4.964-11.528-4.964h-2.796v-48.038c3.485-2.16 7.769-4.964 10.15-6.987 4.499-3.837 22.913-33.593 22.913-37.317l-.406-19.834s3.61-4.654 11.671-1.259c0 0 6.784 12.721 7.476 22.859 0 0-3.055 20.884-4.696 27.436h42.765c10.507.012 8.502 15.013-1.343 16.558z" fill="#010002"/></svg>