<svg xmlns="http://www.w3.org/2000/svg" viewBox="0 0 48 48">
  <path d="M24,0A24,24,0,1,0,48,24,24,24,0,0,0,24,0Zm0,46A22,22,0,1,1,46,24,22,22,0,0,1,24,46Z" fill="#077CA6"/>
  <path d="M19.45,25.25H24.8a5.49,5.49,0,1,1-5.35-6.74,5.45,5.45,0,0,1,3.35,1.14l1.52-2A8,8,0,1,0,27.43,24V22.75h-8Z" fill="#077CA6"/>
  <polygon points="34.36 20.58 31.87 20.58 31.87 22.75 29.7 22.75 29.7 25.25 31.87 25.25 31.87 27.42 34.36 27.42 34.36 25.25 36.54 25.25 36.54 22.75 34.36 22.75 34.36 20.58" fill="#077CA6"/>
</svg>